<?xml version="1.0" encoding="utf-8"?>
<!-- Generator: Adobe Illustrator 16.0.0, SVG Export Plug-In . SVG Version: 6.00 Build 0)  -->
<!DOCTYPE svg PUBLIC "-//W3C//DTD SVG 1.0//EN" "http://www.w3.org/TR/2001/REC-SVG-20010904/DTD/svg10.dtd">
<svg version="1.0" id="Layer_1" xmlns="http://www.w3.org/2000/svg" xmlns:xlink="http://www.w3.org/1999/xlink" x="0px" y="0px"
	 width="270.147px" height="32.834px" viewBox="0 0 270.147 32.834" enable-background="new 0 0 270.147 32.834"
	 xml:space="preserve">
<path fill-rule="evenodd" clip-rule="evenodd" fill="#FFFFFF" stroke="#FFFFFF" stroke-width="0.8" stroke-linecap="round" stroke-linejoin="round" stroke-miterlimit="10" d="
	M24.522,23.432c-0.11-0.069-0.23-0.119-0.351-0.119l-0.109,0.01c-0.171,0.04-0.311,0.13-0.4,0.27c-1.69,2.58-4.12,3.82-7.45,3.82
	c-7.1,0-10.81-5.65-10.81-11.24s3.71-11.25,10.81-11.25c2.73,0,5.63,1.71,6.62,3.32c0.08,0.14,0.23,0.24,0.4,0.27l0.109,0.011
	c0.141,0,0.261-0.04,0.36-0.11l2.479-1.82c0.131-0.1,0.21-0.25,0.24-0.41c0.021-0.149-0.03-0.319-0.13-0.439
	c-2.31-2.9-5.979-4.57-10.08-4.57c-4.18,0-8,1.51-10.77,4.26c-2.78,2.75-4.311,6.561-4.311,10.74c0,4.181,1.53,7.99,4.311,10.75
	c2.77,2.74,6.59,4.25,10.77,4.25c4.44,0,8.68-2.08,10.78-5.31c0.18-0.271,0.11-0.62-0.16-0.811L24.522,23.432z"/>
<path fill-rule="evenodd" clip-rule="evenodd" fill="#FFFFFF" stroke="#FFFFFF" stroke-width="0.8" stroke-linecap="round" stroke-linejoin="round" stroke-miterlimit="10" d="
	M54.692,1.872h-3.53c-0.21,0-0.4,0.11-0.51,0.28l-7.771,12.13l-7.76-12.13c-0.11-0.17-0.3-0.28-0.51-0.28h-3.53
	c-0.22,0-0.43,0.12-0.54,0.31c-0.1,0.2-0.09,0.431,0.03,0.61l10.3,15.46v11.62c0,0.33,0.27,0.6,0.6,0.6h2.82
	c0.34,0,0.61-0.27,0.61-0.6v-11.62l10.29-15.46c0.12-0.18,0.14-0.41,0.029-0.61C55.112,1.992,54.902,1.872,54.692,1.872z"/>
<path fill-rule="evenodd" clip-rule="evenodd" fill="#FFFFFF" stroke="#FFFFFF" stroke-width="0.8" stroke-linecap="round" stroke-linejoin="round" stroke-miterlimit="10" d="
	M113.652,1.872h-2.82c-0.33,0-0.61,0.271-0.61,0.6v21.44l-15.52-21.79c-0.12-0.16-0.3-0.25-0.5-0.25h-3.53
	c-0.34,0-0.6,0.271-0.6,0.6v27.4c0,0.33,0.26,0.6,0.6,0.6h2.83c0.33,0,0.601-0.27,0.601-0.6V8.212l15.529,22.01
	c0.11,0.16,0.29,0.25,0.49,0.25h3.53c0.34,0,0.609-0.27,0.609-0.6v-27.4C114.262,2.143,113.992,1.872,113.652,1.872z"/>
<path fill-rule="evenodd" clip-rule="evenodd" fill="#FFFFFF" stroke="#FFFFFF" stroke-width="0.8" stroke-linecap="round" stroke-linejoin="round" stroke-miterlimit="10" d="
	M142.612,1.872h-2.83c-0.33,0-0.61,0.271-0.61,0.6v16.87c0,7.03-4.21,8.07-6.72,8.07c-2.521,0-6.73-1.04-6.73-8.07V2.472
	c0-0.329-0.27-0.6-0.609-0.6h-2.82c-0.33,0-0.61,0.271-0.61,0.6v17.181c0,2.069,0.36,5.06,2.07,7.51c1.851,2.66,4.78,4.01,8.7,4.01
	s6.85-1.35,8.689-4.01c1.711-2.45,2.07-5.44,2.07-7.51V2.472C143.212,2.143,142.942,1.872,142.612,1.872z"/>
<path fill-rule="evenodd" clip-rule="evenodd" fill="#FFFFFF" stroke="#FFFFFF" stroke-width="0.8" stroke-linecap="round" stroke-linejoin="round" stroke-miterlimit="10" d="
	M159.832,14.212c-3.19-1.04-5.93-1.93-5.93-4.93c0-3.01,2.66-4.36,5.319-4.36c2.16,0,3.761,0.79,4.86,2.41
	c0.1,0.14,0.24,0.23,0.41,0.25c0.03,0.01,0.06,0.01,0.09,0.01c0.14,0,0.271-0.04,0.38-0.12l2.47-1.899
	c0.131-0.101,0.21-0.25,0.23-0.41c0.02-0.17-0.04-0.33-0.15-0.45c-2.17-2.439-4.72-3.53-8.29-3.53c-4.619,0-9.59,2.62-9.59,8.37
	c0,5.771,4.37,7.16,8.221,8.391c3.229,1.01,6.01,1.899,6.01,5.08c0,3.029-3.13,4.399-5.36,4.399c-2.54,0-4.649-1.109-5.78-3.04
	c-0.09-0.14-0.229-0.239-0.399-0.279l-0.13-0.011c-0.12,0-0.25,0.03-0.351,0.11l-2.55,1.82c-0.13,0.1-0.22,0.239-0.25,0.399
	c-0.02,0.15,0.021,0.311,0.11,0.44c2.06,2.78,5.34,4.31,9.239,4.31c4.79,0,9.74-3.189,9.74-8.54
	C168.132,16.912,163.722,15.482,159.832,14.212z"/>
<path fill-rule="evenodd" clip-rule="evenodd" fill="#E13739" stroke="#E13637" stroke-width="0.8" stroke-linecap="round" stroke-linejoin="round" stroke-miterlimit="10" d="
	M75.622,19.922c-0.35,0-0.64-0.29-0.64-0.63v-2.7c0-0.35,0.29-0.63,0.64-0.63h6.77c0.341,0,0.631,0.28,0.631,0.63v6.65
	c0,0.35-0.29,0.63-0.631,0.63h-2.779c-0.36,0-0.641-0.28-0.641-0.63l0.021-3.32H75.622z"/>
<path fill-rule="evenodd" clip-rule="evenodd" fill="#FFFFFF" stroke="#FFFFFF" stroke-width="0.8" stroke-linecap="round" stroke-linejoin="round" stroke-miterlimit="10" d="
	M72.542,1.172c-4.17,0-8,1.51-10.77,4.26c-2.771,2.75-4.311,6.561-4.311,10.74c0,4.181,1.54,7.99,4.311,10.75
	c2.77,2.74,6.6,4.25,10.77,4.25c0.48,0,1.021-0.029,1.64-0.08c0.32-0.029,0.561-0.279,0.561-0.6v-2.561c0-0.17-0.07-0.329-0.2-0.449
	c-0.11-0.101-0.26-0.15-0.4-0.15h-0.06c-0.59,0.061-1.07,0.08-1.54,0.08c-7.1,0-10.8-5.65-10.8-11.24s3.7-11.25,10.8-11.25
	c3.08,0,5.59,1.01,7.48,2.99c0.119,0.12,0.27,0.18,0.43,0.19h0.02c0.15,0,0.301-0.07,0.42-0.171l2.11-2.05
	c0.12-0.12,0.19-0.27,0.19-0.43s-0.07-0.31-0.19-0.43C80.353,2.402,77.022,1.172,72.542,1.172z"/>
<g>
	<rect x="179.132" y="-0.828" fill-rule="evenodd" clip-rule="evenodd" fill="none" width="109" height="44.4"/>
	<path fill="#FFFFFF" d="M180.271,3.478c0.795-0.12,1.74-0.21,2.775-0.21c1.875,0,3.21,0.435,4.095,1.26
		c0.899,0.825,1.425,1.995,1.425,3.63c0,1.649-0.51,3-1.455,3.93c-0.944,0.945-2.505,1.455-4.47,1.455c-0.93,0-1.71-0.045-2.37-0.12
		V3.478z M181.577,12.417c0.329,0.06,0.81,0.075,1.319,0.075c2.79,0,4.305-1.561,4.305-4.29c0.016-2.385-1.335-3.9-4.095-3.9
		c-0.675,0-1.185,0.061-1.529,0.136V12.417z"/>
	<path fill="#FFFFFF" d="M195.496,8.712h-3.93v3.645h4.38v1.096h-5.685V3.342h5.46v1.096h-4.155v3.194h3.93V8.712z"/>
	<path fill="#FFFFFF" d="M197.461,11.862c0.586,0.359,1.44,0.659,2.341,0.659c1.335,0,2.114-0.705,2.114-1.725
		c0-0.945-0.54-1.485-1.904-2.01c-1.65-0.585-2.67-1.44-2.67-2.865c0-1.574,1.305-2.745,3.27-2.745c1.035,0,1.785,0.24,2.234,0.495
		l-0.359,1.065c-0.33-0.18-1.005-0.48-1.92-0.48c-1.38,0-1.905,0.825-1.905,1.516c0,0.944,0.615,1.409,2.01,1.949
		c1.71,0.66,2.58,1.485,2.58,2.971c0,1.56-1.154,2.909-3.54,2.909c-0.975,0-2.039-0.285-2.579-0.645L197.461,11.862z"/>
	<path fill="#FFFFFF" d="M206.671,10.271l-1.05,3.181h-1.35l3.435-10.11h1.575l3.45,10.11h-1.396l-1.08-3.181H206.671z
		 M209.986,9.252l-0.99-2.91c-0.225-0.659-0.375-1.26-0.524-1.845h-0.03c-0.15,0.6-0.315,1.215-0.51,1.83l-0.99,2.925H209.986z"/>
	<path fill="#FFFFFF" d="M214.217,3.478c0.659-0.136,1.604-0.21,2.505-0.21c1.395,0,2.295,0.255,2.925,0.824
		c0.51,0.45,0.795,1.141,0.795,1.92c0,1.335-0.84,2.221-1.905,2.58v0.045c0.78,0.271,1.245,0.99,1.485,2.04
		c0.33,1.41,0.569,2.385,0.779,2.775h-1.35c-0.165-0.285-0.39-1.155-0.675-2.415c-0.3-1.396-0.84-1.92-2.025-1.965h-1.229v4.38
		h-1.305V3.478z M215.521,8.082h1.335c1.395,0,2.279-0.765,2.279-1.92c0-1.305-0.944-1.875-2.324-1.89c-0.63,0-1.08,0.06-1.29,0.12
		V8.082z"/>
	<path fill="#FFFFFF" d="M222.286,3.478c0.66-0.136,1.605-0.21,2.505-0.21c1.396,0,2.295,0.255,2.925,0.824
		c0.51,0.45,0.795,1.141,0.795,1.92c0,1.335-0.84,2.221-1.904,2.58v0.045c0.779,0.271,1.244,0.99,1.484,2.04
		c0.33,1.41,0.57,2.385,0.78,2.775h-1.35c-0.165-0.285-0.391-1.155-0.676-2.415c-0.3-1.396-0.84-1.92-2.024-1.965h-1.23v4.38h-1.305
		V3.478z M223.591,8.082h1.335c1.396,0,2.28-0.765,2.28-1.92c0-1.305-0.945-1.875-2.325-1.89c-0.63,0-1.08,0.06-1.29,0.12V8.082z"/>
	<path fill="#FFFFFF" d="M239.041,8.292c0,3.479-2.115,5.325-4.695,5.325c-2.67,0-4.545-2.07-4.545-5.13
		c0-3.21,1.995-5.311,4.695-5.311C237.256,3.177,239.041,5.292,239.041,8.292z M231.196,8.457c0,2.16,1.17,4.095,3.225,4.095
		c2.07,0,3.24-1.905,3.24-4.2c0-2.01-1.051-4.109-3.226-4.109C232.276,4.242,231.196,6.237,231.196,8.457z"/>
	<path fill="#FFFFFF" d="M240.736,3.342h1.305v9.015h4.319v1.096h-5.624V3.342z"/>
	<path fill="#FFFFFF" d="M247.815,3.342h1.306v9.015h4.319v1.096h-5.625V3.342z"/>
	<path fill="#FFFFFF" d="M262.95,8.292c0,3.479-2.114,5.325-4.694,5.325c-2.67,0-4.545-2.07-4.545-5.13
		c0-3.21,1.995-5.311,4.694-5.311C261.165,3.177,262.95,5.292,262.95,8.292z M255.105,8.457c0,2.16,1.17,4.095,3.225,4.095
		c2.07,0,3.24-1.905,3.24-4.2c0-2.01-1.05-4.109-3.225-4.109C256.186,4.242,255.105,6.237,255.105,8.457z"/>
	<path fill="#FFFFFF" d="M186.602,31.452c-0.285-0.285-0.555-0.57-0.945-0.99c-0.87,0.81-1.845,1.155-2.954,1.155
		c-1.966,0-3.105-1.32-3.105-2.835c0-1.38,0.825-2.325,1.98-2.955v-0.045c-0.525-0.66-0.841-1.396-0.841-2.115
		c0-1.229,0.886-2.49,2.565-2.49c1.26,0,2.234,0.841,2.234,2.146c0,1.064-0.614,1.905-2.22,2.7v0.045
		c0.855,0.989,1.815,2.1,2.46,2.819c0.465-0.705,0.78-1.68,0.976-2.955h1.199c-0.27,1.591-0.705,2.851-1.455,3.735
		c0.54,0.57,1.065,1.14,1.665,1.785H186.602z M185.012,29.712c-0.6-0.66-1.725-1.89-2.85-3.18c-0.54,0.345-1.306,0.99-1.306,2.055
		c0,1.155,0.855,2.04,2.07,2.04C183.797,30.627,184.531,30.237,185.012,29.712z M181.937,23.547c0,0.721,0.33,1.275,0.766,1.815
		c1.02-0.585,1.68-1.125,1.68-1.98c0-0.614-0.345-1.305-1.17-1.305C182.372,22.077,181.937,22.768,181.937,23.547z"/>
	<path fill="#FFFFFF" d="M192.526,21.478c0.795-0.12,1.74-0.21,2.775-0.21c1.875,0,3.21,0.435,4.095,1.26
		c0.899,0.825,1.425,1.995,1.425,3.63c0,1.649-0.51,3-1.455,3.93c-0.945,0.945-2.505,1.455-4.47,1.455c-0.93,0-1.71-0.045-2.37-0.12
		V21.478z M193.831,30.417c0.33,0.06,0.811,0.075,1.32,0.075c2.79,0,4.305-1.561,4.305-4.29c0.016-2.385-1.335-3.9-4.095-3.9
		c-0.675,0-1.185,0.061-1.53,0.136V30.417z"/>
	<path fill="#FFFFFF" d="M203.821,21.342v10.11h-1.305v-10.11H203.821z"/>
	<path fill="#FFFFFF" d="M205.921,29.862c0.585,0.359,1.44,0.659,2.341,0.659c1.334,0,2.114-0.705,2.114-1.725
		c0-0.945-0.54-1.485-1.904-2.01c-1.65-0.585-2.67-1.44-2.67-2.865c0-1.574,1.305-2.745,3.27-2.745c1.035,0,1.785,0.24,2.234,0.495
		l-0.359,1.065c-0.33-0.18-1.005-0.48-1.92-0.48c-1.38,0-1.905,0.825-1.905,1.516c0,0.944,0.615,1.409,2.01,1.949
		c1.71,0.66,2.58,1.485,2.58,2.971c0,1.56-1.154,2.909-3.54,2.909c-0.975,0-2.04-0.285-2.579-0.645L205.921,29.862z"/>
	<path fill="#FFFFFF" d="M218.731,26.712h-3.931v3.645h4.38v1.096h-5.685v-10.11h5.46v1.096h-4.155v3.194h3.931V26.712z"/>
	<path fill="#FFFFFF" d="M220.876,31.452v-10.11h1.425l3.24,5.115c0.75,1.185,1.335,2.25,1.814,3.285l0.03-0.016
		c-0.12-1.35-0.149-2.579-0.149-4.154v-4.23h1.229v10.11h-1.32l-3.21-5.13c-0.704-1.125-1.38-2.28-1.89-3.375l-0.045,0.015
		c0.075,1.275,0.105,2.49,0.105,4.17v4.32H220.876z M222.886,20.728c-0.029-0.915,0.36-1.53,1.021-1.53
		c0.33,0,0.569,0.135,0.885,0.3c0.24,0.135,0.479,0.271,0.72,0.271c0.226,0,0.36-0.105,0.405-0.585h0.689
		c0.016,0.944-0.314,1.455-1.005,1.455c-0.314,0-0.585-0.12-0.915-0.285c-0.284-0.15-0.494-0.285-0.704-0.285
		c-0.24,0-0.36,0.255-0.391,0.66H222.886z"/>
	<path fill="#FFFFFF" d="M239.386,26.292c0,3.479-2.115,5.325-4.695,5.325c-2.67,0-4.545-2.07-4.545-5.13
		c0-3.21,1.995-5.311,4.695-5.311C237.601,21.177,239.386,23.292,239.386,26.292z M231.541,26.457c0,2.16,1.17,4.095,3.225,4.095
		c2.07,0,3.24-1.905,3.24-4.2c0-2.01-1.05-4.109-3.225-4.109C232.621,22.242,231.541,24.237,231.541,26.457z"/>
	<path fill="#FFFFFF" d="M245.371,31.452l-2.565-10.11h1.38l1.2,5.115c0.3,1.26,0.57,2.52,0.75,3.495h0.03
		c0.165-1.005,0.479-2.205,0.824-3.51l1.351-5.101h1.364l1.23,5.13c0.285,1.2,0.555,2.4,0.705,3.465h0.03
		c0.21-1.109,0.494-2.234,0.81-3.494l1.335-5.101h1.335l-2.865,10.11h-1.364l-1.275-5.265c-0.314-1.29-0.525-2.28-0.66-3.301h-0.029
		c-0.181,1.006-0.405,1.995-0.78,3.301l-1.44,5.265H245.371z"/>
	<path fill="#FFFFFF" d="M261.646,26.712h-3.93v3.645h4.38v1.096h-5.685v-10.11h5.459v1.096h-4.154v3.194h3.93V26.712z"/>
	<path fill="#FFFFFF" d="M263.791,21.478c0.569-0.12,1.47-0.21,2.385-0.21c1.305,0,2.145,0.225,2.774,0.734
		c0.525,0.391,0.84,0.99,0.84,1.785c0,0.975-0.645,1.83-1.71,2.22v0.03c0.96,0.24,2.085,1.035,2.085,2.535
		c0,0.87-0.345,1.529-0.854,2.024c-0.705,0.646-1.845,0.945-3.495,0.945c-0.9,0-1.59-0.061-2.024-0.12V21.478z M265.096,25.617
		h1.185c1.38,0,2.19-0.72,2.19-1.695c0-1.185-0.9-1.649-2.221-1.649c-0.6,0-0.944,0.045-1.154,0.09V25.617z M265.096,30.462
		c0.255,0.045,0.63,0.06,1.095,0.06c1.35,0,2.595-0.494,2.595-1.965c0-1.38-1.185-1.949-2.609-1.949h-1.08V30.462z"/>
</g>
</svg>
